<svg width="446" height="391" viewBox="0 0 446 391" fill="none" xmlns="http://www.w3.org/2000/svg">
<rect width="446" height="391" rx="4" fill="white"/>
<path d="M0 4C0 1.79086 1.79086 0 4 0H446V21H0V4Z" fill="#EAECED"/>
<rect y="21" width="109" height="370" rx="1" fill="#090115"/>
<rect x="6" y="27" width="75" height="16" rx="1" fill="#707A84" fill-opacity="0.5"/>
<rect x="87" y="27" width="16" height="16" rx="1" fill="#707A84" fill-opacity="0.5"/>
<rect x="40" y="70" width="51" height="5" rx="1" fill="#707A84"/>
<rect x="40" y="84" width="24" height="7" rx="1" fill="#475361"/>
<rect x="40" y="100" width="37" height="7" rx="1" fill="#475361"/>
<circle cx="18.5" cy="70.5" r="12.5" fill="#5CCE87"/>
<path d="M18.07 231.412V235H17.392V231.412H16.144V230.812H19.318V231.412H18.07ZM20.7623 235.072C20.5383 235.072 20.3383 235.034 20.1623 234.958C19.9863 234.882 19.8363 234.774 19.7123 234.634C19.5883 234.49 19.4923 234.318 19.4243 234.118C19.3603 233.914 19.3283 233.688 19.3283 233.44C19.3283 233.192 19.3603 232.968 19.4243 232.768C19.4923 232.564 19.5883 232.392 19.7123 232.252C19.8363 232.108 19.9863 231.998 20.1623 231.922C20.3383 231.846 20.5383 231.808 20.7623 231.808C20.9903 231.808 21.1903 231.848 21.3623 231.928C21.5383 232.008 21.6843 232.12 21.8003 232.264C21.9163 232.404 22.0023 232.568 22.0583 232.756C22.1183 232.944 22.1483 233.146 22.1483 233.362V233.608H20.0063V233.71C20.0063 233.95 20.0763 234.148 20.2163 234.304C20.3603 234.456 20.5643 234.532 20.8283 234.532C21.0203 234.532 21.1823 234.49 21.3143 234.406C21.4463 234.322 21.5583 234.208 21.6503 234.064L22.0343 234.442C21.9183 234.634 21.7503 234.788 21.5303 234.904C21.3103 235.016 21.0543 235.072 20.7623 235.072ZM20.7623 232.318C20.6503 232.318 20.5463 232.338 20.4503 232.378C20.3583 232.418 20.2783 232.474 20.2103 232.546C20.1463 232.618 20.0963 232.704 20.0603 232.804C20.0243 232.904 20.0063 233.014 20.0063 233.134V233.176H21.4583V233.116C21.4583 232.876 21.3963 232.684 21.2723 232.54C21.1483 232.392 20.9783 232.318 20.7623 232.318ZM25.1583 235C24.9863 235 24.8543 234.952 24.7623 234.856C24.6703 234.756 24.6143 234.63 24.5943 234.478H24.5643C24.5043 234.674 24.3943 234.822 24.2343 234.922C24.0743 235.022 23.8803 235.072 23.6523 235.072C23.3283 235.072 23.0783 234.988 22.9023 234.82C22.7303 234.652 22.6443 234.426 22.6443 234.142C22.6443 233.83 22.7563 233.596 22.9803 233.44C23.2083 233.284 23.5403 233.206 23.9763 233.206H24.5403V232.942C24.5403 232.75 24.4883 232.602 24.3843 232.498C24.2803 232.394 24.1183 232.342 23.8983 232.342C23.7143 232.342 23.5643 232.382 23.4483 232.462C23.3323 232.542 23.2343 232.644 23.1543 232.768L22.7643 232.414C22.8683 232.238 23.0143 232.094 23.2023 231.982C23.3903 231.866 23.6363 231.808 23.9403 231.808C24.3443 231.808 24.6543 231.902 24.8703 232.09C25.0863 232.278 25.1943 232.548 25.1943 232.9V234.466H25.5243V235H25.1583ZM23.8383 234.574C24.0423 234.574 24.2103 234.53 24.3423 234.442C24.4743 234.35 24.5403 234.228 24.5403 234.076V233.626H23.9883C23.5363 233.626 23.3103 233.766 23.3103 234.046V234.154C23.3103 234.294 23.3563 234.4 23.4483 234.472C23.5443 234.54 23.6743 234.574 23.8383 234.574ZM26.1653 235V231.88H26.8193V232.396H26.8493C26.8813 232.316 26.9193 232.24 26.9633 232.168C27.0113 232.096 27.0673 232.034 27.1313 231.982C27.1993 231.926 27.2773 231.884 27.3653 231.856C27.4573 231.824 27.5633 231.808 27.6833 231.808C27.8953 231.808 28.0833 231.86 28.2473 231.964C28.4113 232.068 28.5313 232.228 28.6073 232.444H28.6253C28.6813 232.268 28.7893 232.118 28.9493 231.994C29.1093 231.87 29.3153 231.808 29.5673 231.808C29.8793 231.808 30.1213 231.914 30.2933 232.126C30.4653 232.334 30.5513 232.632 30.5513 233.02V235H29.8973V233.098C29.8973 232.858 29.8513 232.678 29.7593 232.558C29.6673 232.434 29.5213 232.372 29.3213 232.372C29.2373 232.372 29.1573 232.384 29.0813 232.408C29.0053 232.428 28.9373 232.46 28.8773 232.504C28.8213 232.548 28.7753 232.604 28.7393 232.672C28.7033 232.74 28.6853 232.818 28.6853 232.906V235H28.0313V233.098C28.0313 232.614 27.8413 232.372 27.4613 232.372C27.3813 232.372 27.3013 232.384 27.2213 232.408C27.1453 232.428 27.0773 232.46 27.0173 232.504C26.9573 232.548 26.9093 232.604 26.8733 232.672C26.8373 232.74 26.8193 232.818 26.8193 232.906V235H26.1653Z" fill="#707A84"/>
<path d="M18.07 161.412V165H17.392V161.412H16.144V160.812H19.318V161.412H18.07ZM20.7623 165.072C20.5383 165.072 20.3383 165.034 20.1623 164.958C19.9863 164.882 19.8363 164.774 19.7123 164.634C19.5883 164.49 19.4923 164.318 19.4243 164.118C19.3603 163.914 19.3283 163.688 19.3283 163.44C19.3283 163.192 19.3603 162.968 19.4243 162.768C19.4923 162.564 19.5883 162.392 19.7123 162.252C19.8363 162.108 19.9863 161.998 20.1623 161.922C20.3383 161.846 20.5383 161.808 20.7623 161.808C20.9903 161.808 21.1903 161.848 21.3623 161.928C21.5383 162.008 21.6843 162.12 21.8003 162.264C21.9163 162.404 22.0023 162.568 22.0583 162.756C22.1183 162.944 22.1483 163.146 22.1483 163.362V163.608H20.0063V163.71C20.0063 163.95 20.0763 164.148 20.2163 164.304C20.3603 164.456 20.5643 164.532 20.8283 164.532C21.0203 164.532 21.1823 164.49 21.3143 164.406C21.4463 164.322 21.5583 164.208 21.6503 164.064L22.0343 164.442C21.9183 164.634 21.7503 164.788 21.5303 164.904C21.3103 165.016 21.0543 165.072 20.7623 165.072ZM20.7623 162.318C20.6503 162.318 20.5463 162.338 20.4503 162.378C20.3583 162.418 20.2783 162.474 20.2103 162.546C20.1463 162.618 20.0963 162.704 20.0603 162.804C20.0243 162.904 20.0063 163.014 20.0063 163.134V163.176H21.4583V163.116C21.4583 162.876 21.3963 162.684 21.2723 162.54C21.1483 162.392 20.9783 162.318 20.7623 162.318ZM25.1583 165C24.9863 165 24.8543 164.952 24.7623 164.856C24.6703 164.756 24.6143 164.63 24.5943 164.478H24.5643C24.5043 164.674 24.3943 164.822 24.2343 164.922C24.0743 165.022 23.8803 165.072 23.6523 165.072C23.3283 165.072 23.0783 164.988 22.9023 164.82C22.7303 164.652 22.6443 164.426 22.6443 164.142C22.6443 163.83 22.7563 163.596 22.9803 163.44C23.2083 163.284 23.5403 163.206 23.9763 163.206H24.5403V162.942C24.5403 162.75 24.4883 162.602 24.3843 162.498C24.2803 162.394 24.1183 162.342 23.8983 162.342C23.7143 162.342 23.5643 162.382 23.4483 162.462C23.3323 162.542 23.2343 162.644 23.1543 162.768L22.7643 162.414C22.8683 162.238 23.0143 162.094 23.2023 161.982C23.3903 161.866 23.6363 161.808 23.9403 161.808C24.3443 161.808 24.6543 161.902 24.8703 162.09C25.0863 162.278 25.1943 162.548 25.1943 162.9V164.466H25.5243V165H25.1583ZM23.8383 164.574C24.0423 164.574 24.2103 164.53 24.3423 164.442C24.4743 164.35 24.5403 164.228 24.5403 164.076V163.626H23.9883C23.5363 163.626 23.3103 163.766 23.3103 164.046V164.154C23.3103 164.294 23.3563 164.4 23.4483 164.472C23.5443 164.54 23.6743 164.574 23.8383 164.574ZM26.1653 165V161.88H26.8193V162.396H26.8493C26.8813 162.316 26.9193 162.24 26.9633 162.168C27.0113 162.096 27.0673 162.034 27.1313 161.982C27.1993 161.926 27.2773 161.884 27.3653 161.856C27.4573 161.824 27.5633 161.808 27.6833 161.808C27.8953 161.808 28.0833 161.86 28.2473 161.964C28.4113 162.068 28.5313 162.228 28.6073 162.444H28.6253C28.6813 162.268 28.7893 162.118 28.9493 161.994C29.1093 161.87 29.3153 161.808 29.5673 161.808C29.8793 161.808 30.1213 161.914 30.2933 162.126C30.4653 162.334 30.5513 162.632 30.5513 163.02V165H29.8973V163.098C29.8973 162.858 29.8513 162.678 29.7593 162.558C29.6673 162.434 29.5213 162.372 29.3213 162.372C29.2373 162.372 29.1573 162.384 29.0813 162.408C29.0053 162.428 28.9373 162.46 28.8773 162.504C28.8213 162.548 28.7753 162.604 28.7393 162.672C28.7033 162.74 28.6853 162.818 28.6853 162.906V165H28.0313V163.098C28.0313 162.614 27.8413 162.372 27.4613 162.372C27.3813 162.372 27.3013 162.384 27.2213 162.408C27.1453 162.428 27.0773 162.46 27.0173 162.504C26.9573 162.548 26.9093 162.604 26.8733 162.672C26.8373 162.74 26.8193 162.818 26.8193 162.906V165H26.1653Z" fill="#707A84"/>
<path d="M8.76 145.216V150H7.856V145.216H6.192V144.416H10.424V145.216H8.76ZM12.3498 150.096C12.0618 150.096 11.7978 150.045 11.5578 149.944C11.3231 149.843 11.1231 149.699 10.9578 149.512C10.7924 149.32 10.6644 149.091 10.5738 148.824C10.4831 148.552 10.4378 148.251 10.4378 147.92C10.4378 147.589 10.4831 147.291 10.5738 147.024C10.6644 146.752 10.7924 146.523 10.9578 146.336C11.1231 146.144 11.3231 145.997 11.5578 145.896C11.7978 145.795 12.0618 145.744 12.3498 145.744C12.6378 145.744 12.8991 145.795 13.1338 145.896C13.3738 145.997 13.5764 146.144 13.7418 146.336C13.9071 146.523 14.0351 146.752 14.1258 147.024C14.2164 147.291 14.2618 147.589 14.2618 147.92C14.2618 148.251 14.2164 148.552 14.1258 148.824C14.0351 149.091 13.9071 149.32 13.7418 149.512C13.5764 149.699 13.3738 149.843 13.1338 149.944C12.8991 150.045 12.6378 150.096 12.3498 150.096ZM12.3498 149.376C12.6484 149.376 12.8884 149.285 13.0698 149.104C13.2511 148.917 13.3418 148.64 13.3418 148.272V147.568C13.3418 147.2 13.2511 146.925 13.0698 146.744C12.8884 146.557 12.6484 146.464 12.3498 146.464C12.0511 146.464 11.8111 146.557 11.6298 146.744C11.4484 146.925 11.3578 147.2 11.3578 147.568V148.272C11.3578 148.64 11.4484 148.917 11.6298 149.104C11.8111 149.285 12.0511 149.376 12.3498 149.376ZM15.2334 145.84H16.1054V146.528H16.1454C16.236 146.277 16.3827 146.085 16.5854 145.952C16.7934 145.813 17.036 145.744 17.3134 145.744C17.8414 145.744 18.2494 145.936 18.5374 146.32C18.8254 146.699 18.9694 147.232 18.9694 147.92C18.9694 148.608 18.8254 149.144 18.5374 149.528C18.2494 149.907 17.8414 150.096 17.3134 150.096C17.036 150.096 16.7934 150.027 16.5854 149.888C16.3827 149.749 16.236 149.557 16.1454 149.312H16.1054V151.6H15.2334V145.84ZM17.0494 149.344C17.3534 149.344 17.596 149.248 17.7774 149.056C17.9587 148.859 18.0494 148.6 18.0494 148.28V147.56C18.0494 147.24 17.9587 146.984 17.7774 146.792C17.596 146.595 17.3534 146.496 17.0494 146.496C16.7827 146.496 16.5587 146.563 16.3774 146.696C16.196 146.824 16.1054 146.995 16.1054 147.208V148.632C16.1054 148.845 16.196 149.019 16.3774 149.152C16.5587 149.28 16.7827 149.344 17.0494 149.344ZM20.4078 145.096C20.2264 145.096 20.0931 145.053 20.0078 144.968C19.9278 144.883 19.8878 144.773 19.8878 144.64V144.504C19.8878 144.371 19.9278 144.261 20.0078 144.176C20.0931 144.091 20.2264 144.048 20.4078 144.048C20.5891 144.048 20.7198 144.091 20.7998 144.176C20.8798 144.261 20.9198 144.371 20.9198 144.504V144.64C20.9198 144.773 20.8798 144.883 20.7998 144.968C20.7198 145.053 20.5891 145.096 20.4078 145.096ZM19.9678 145.84H20.8398V150H19.9678V145.84ZM23.6929 150.096C23.3943 150.096 23.1276 150.045 22.8929 149.944C22.6583 149.843 22.4609 149.699 22.3009 149.512C22.1409 149.32 22.0183 149.091 21.9329 148.824C21.8476 148.552 21.8049 148.251 21.8049 147.92C21.8049 147.589 21.8476 147.291 21.9329 147.024C22.0183 146.752 22.1409 146.523 22.3009 146.336C22.4609 146.144 22.6583 145.997 22.8929 145.896C23.1276 145.795 23.3943 145.744 23.6929 145.744C24.1089 145.744 24.4503 145.837 24.7169 146.024C24.9836 146.211 25.1783 146.459 25.3009 146.768L24.5809 147.104C24.5223 146.912 24.4183 146.76 24.2689 146.648C24.1249 146.531 23.9329 146.472 23.6929 146.472C23.3729 146.472 23.1303 146.573 22.9649 146.776C22.8049 146.973 22.7249 147.232 22.7249 147.552V148.296C22.7249 148.616 22.8049 148.877 22.9649 149.08C23.1303 149.277 23.3729 149.376 23.6929 149.376C23.9489 149.376 24.1516 149.315 24.3009 149.192C24.4556 149.064 24.5783 148.896 24.6689 148.688L25.3329 149.04C25.1943 149.381 24.9863 149.643 24.7089 149.824C24.4316 150.005 24.0929 150.096 23.6929 150.096ZM27.4831 150.096C27.0884 150.096 26.7577 150.027 26.4911 149.888C26.2244 149.749 25.9924 149.557 25.7951 149.312L26.3551 148.8C26.5097 148.987 26.6804 149.133 26.8671 149.24C27.0591 149.341 27.2804 149.392 27.5311 149.392C27.7871 149.392 27.9764 149.344 28.0991 149.248C28.2271 149.147 28.2911 149.008 28.2911 148.832C28.2911 148.699 28.2457 148.587 28.1551 148.496C28.0697 148.4 27.9177 148.339 27.6991 148.312L27.3151 148.264C26.8884 148.211 26.5524 148.088 26.3071 147.896C26.0671 147.699 25.9471 147.408 25.9471 147.024C25.9471 146.821 25.9844 146.643 26.0591 146.488C26.1337 146.328 26.2377 146.195 26.3711 146.088C26.5097 145.976 26.6724 145.891 26.8591 145.832C27.0511 145.773 27.2617 145.744 27.4911 145.744C27.8644 145.744 28.1684 145.803 28.4031 145.92C28.6431 146.037 28.8564 146.2 29.0431 146.408L28.5071 146.92C28.4004 146.792 28.2591 146.683 28.0831 146.592C27.9124 146.496 27.7151 146.448 27.4911 146.448C27.2511 146.448 27.0724 146.496 26.9551 146.592C26.8431 146.688 26.7871 146.813 26.7871 146.968C26.7871 147.128 26.8377 147.248 26.9391 147.328C27.0404 147.408 27.2031 147.467 27.4271 147.504L27.8111 147.552C28.2697 147.621 28.6031 147.757 28.8111 147.96C29.0244 148.157 29.1311 148.424 29.1311 148.76C29.1311 148.963 29.0911 149.147 29.0111 149.312C28.9364 149.472 28.8271 149.611 28.6831 149.728C28.5391 149.845 28.3657 149.936 28.1631 150C27.9604 150.064 27.7337 150.096 27.4831 150.096Z" fill="white"/>
<path d="M8.76 211.216V216H7.856V211.216H6.192V210.416H10.424V211.216H8.76ZM12.3498 216.096C12.0511 216.096 11.7844 216.045 11.5498 215.944C11.3151 215.843 11.1151 215.699 10.9498 215.512C10.7844 215.32 10.6564 215.091 10.5658 214.824C10.4804 214.552 10.4378 214.251 10.4378 213.92C10.4378 213.589 10.4804 213.291 10.5658 213.024C10.6564 212.752 10.7844 212.523 10.9498 212.336C11.1151 212.144 11.3151 211.997 11.5498 211.896C11.7844 211.795 12.0511 211.744 12.3498 211.744C12.6538 211.744 12.9204 211.797 13.1498 211.904C13.3844 212.011 13.5791 212.16 13.7338 212.352C13.8884 212.539 14.0031 212.757 14.0778 213.008C14.1578 213.259 14.1978 213.528 14.1978 213.816V214.144H11.3418V214.28C11.3418 214.6 11.4351 214.864 11.6218 215.072C11.8138 215.275 12.0858 215.376 12.4378 215.376C12.6938 215.376 12.9098 215.32 13.0858 215.208C13.2618 215.096 13.4111 214.944 13.5338 214.752L14.0458 215.256C13.8911 215.512 13.6671 215.717 13.3738 215.872C13.0804 216.021 12.7391 216.096 12.3498 216.096ZM12.3498 212.424C12.2004 212.424 12.0618 212.451 11.9338 212.504C11.8111 212.557 11.7044 212.632 11.6138 212.728C11.5284 212.824 11.4618 212.939 11.4138 213.072C11.3658 213.205 11.3418 213.352 11.3418 213.512V213.568H13.2778V213.488C13.2778 213.168 13.1951 212.912 13.0298 212.72C12.8644 212.523 12.6378 212.424 12.3498 212.424ZM18.2111 216C17.9817 216 17.8057 215.936 17.6831 215.808C17.5604 215.675 17.4857 215.507 17.4591 215.304H17.4191C17.3391 215.565 17.1924 215.763 16.9791 215.896C16.7657 216.029 16.5071 216.096 16.2031 216.096C15.7711 216.096 15.4377 215.984 15.2031 215.76C14.9737 215.536 14.8591 215.235 14.8591 214.856C14.8591 214.44 15.0084 214.128 15.3071 213.92C15.6111 213.712 16.0537 213.608 16.6351 213.608H17.3871V213.256C17.3871 213 17.3177 212.803 17.1791 212.664C17.0404 212.525 16.8244 212.456 16.5311 212.456C16.2857 212.456 16.0857 212.509 15.9311 212.616C15.7764 212.723 15.6457 212.859 15.5391 213.024L15.0191 212.552C15.1577 212.317 15.3524 212.125 15.6031 211.976C15.8537 211.821 16.1817 211.744 16.5871 211.744C17.1257 211.744 17.5391 211.869 17.8271 212.12C18.1151 212.371 18.2591 212.731 18.2591 213.2V215.288H18.6991V216H18.2111ZM16.4511 215.432C16.7231 215.432 16.9471 215.373 17.1231 215.256C17.2991 215.133 17.3871 214.971 17.3871 214.768V214.168H16.6511C16.0484 214.168 15.7471 214.355 15.7471 214.728V214.872C15.7471 215.059 15.8084 215.2 15.9311 215.296C16.0591 215.387 16.2324 215.432 16.4511 215.432ZM19.5537 216V211.84H20.4257V212.528H20.4657C20.5084 212.421 20.559 212.32 20.6177 212.224C20.6817 212.128 20.7564 212.045 20.8417 211.976C20.9324 211.901 21.0364 211.845 21.1537 211.808C21.2764 211.765 21.4177 211.744 21.5777 211.744C21.8604 211.744 22.111 211.813 22.3297 211.952C22.5484 212.091 22.7084 212.304 22.8097 212.592H22.8337C22.9084 212.357 23.0524 212.157 23.2657 211.992C23.479 211.827 23.7537 211.744 24.0897 211.744C24.5057 211.744 24.8284 211.885 25.0577 212.168C25.287 212.445 25.4017 212.843 25.4017 213.36V216H24.5297V213.464C24.5297 213.144 24.4684 212.904 24.3457 212.744C24.223 212.579 24.0284 212.496 23.7617 212.496C23.6497 212.496 23.543 212.512 23.4417 212.544C23.3404 212.571 23.2497 212.613 23.1697 212.672C23.095 212.731 23.0337 212.805 22.9857 212.896C22.9377 212.987 22.9137 213.091 22.9137 213.208V216H22.0417V213.464C22.0417 212.819 21.7884 212.496 21.2817 212.496C21.175 212.496 21.0684 212.512 20.9617 212.544C20.8604 212.571 20.7697 212.613 20.6897 212.672C20.6097 212.731 20.5457 212.805 20.4977 212.896C20.4497 212.987 20.4257 213.091 20.4257 213.208V216H19.5537Z" fill="white"/>
<circle cx="11" cy="10" r="4" fill="#ED5752"/>
<circle cx="23" cy="10" r="4" fill="#F2B644"/>
<circle cx="35" cy="10" r="4" fill="#69C397"/>
</svg>
