<svg width="624" height="618" viewBox="0 0 624 618" fill="none" xmlns="http://www.w3.org/2000/svg">
<path d="M454.004 314.105C407.81 299.58 338.24 175.518 361.988 99.99C385.737 24.4619 493.81 26.0687 540.005 40.5937C586.199 55.1187 604.396 128.121 580.647 203.649C556.899 279.177 500.199 328.63 454.004 314.105Z" fill="#F6C063"/>
<path d="M339.781 451.505C318.201 504.404 179.635 579.858 104.584 549.241C29.5328 518.623 46.4167 393.53 67.9969 340.631C89.5771 287.732 167.912 269.669 242.964 300.286C318.015 330.903 361.362 398.606 339.781 451.505Z" fill="#F6C063"/>
<path d="M251 438.791C258.612 460.105 276.747 476.91 294.689 489.725C306.859 498.419 320.507 503.974 333.837 510.559C346.485 516.807 359.178 523.368 372.893 526.977C380.08 528.868 387.543 530.156 394.971 530.46C406.417 530.928 418.594 531.352 429.766 528.501C448.792 523.646 464.598 513.757 477.932 499.458C488.964 487.629 495.829 473.581 499.139 457.822C501.697 445.646 501.795 433.691 506.229 422" stroke="#F6C063" stroke-width="3" stroke-linecap="round" stroke-linejoin="round"/>
<path d="M89 106H529V472C529 474.209 527.209 476 525 476H89V106Z" fill="#FBFBFB"/>
<path d="M83 89C83 86.7909 84.7909 85 87 85H525C527.209 85 529 86.7909 529 89V106H83V89Z" fill="#EAECED"/>
<rect x="83" y="106" width="109" height="370" fill="#090115"/>
<rect x="89" y="112" width="75" height="16" rx="1" fill="#707A84" fill-opacity="0.5"/>
<rect x="170" y="112" width="16" height="16" rx="1" fill="#707A84" fill-opacity="0.5"/>
<rect x="123" y="155" width="51" height="5" rx="1" fill="#707A84"/>
<rect x="123" y="169" width="24" height="7" rx="1" fill="#475361"/>
<rect x="123" y="185" width="37" height="7" rx="1" fill="#475361"/>
<circle cx="101.5" cy="155.5" r="12.5" fill="#5CCE87"/>
<path d="M101.07 316.412V320H100.392V316.412H99.144V315.812H102.318V316.412H101.07ZM103.762 320.072C103.538 320.072 103.338 320.034 103.162 319.958C102.986 319.882 102.836 319.774 102.712 319.634C102.588 319.49 102.492 319.318 102.424 319.118C102.36 318.914 102.328 318.688 102.328 318.44C102.328 318.192 102.36 317.968 102.424 317.768C102.492 317.564 102.588 317.392 102.712 317.252C102.836 317.108 102.986 316.998 103.162 316.922C103.338 316.846 103.538 316.808 103.762 316.808C103.99 316.808 104.19 316.848 104.362 316.928C104.538 317.008 104.684 317.12 104.8 317.264C104.916 317.404 105.002 317.568 105.058 317.756C105.118 317.944 105.148 318.146 105.148 318.362V318.608H103.006V318.71C103.006 318.95 103.076 319.148 103.216 319.304C103.36 319.456 103.564 319.532 103.828 319.532C104.02 319.532 104.182 319.49 104.314 319.406C104.446 319.322 104.558 319.208 104.65 319.064L105.034 319.442C104.918 319.634 104.75 319.788 104.53 319.904C104.31 320.016 104.054 320.072 103.762 320.072ZM103.762 317.318C103.65 317.318 103.546 317.338 103.45 317.378C103.358 317.418 103.278 317.474 103.21 317.546C103.146 317.618 103.096 317.704 103.06 317.804C103.024 317.904 103.006 318.014 103.006 318.134V318.176H104.458V318.116C104.458 317.876 104.396 317.684 104.272 317.54C104.148 317.392 103.978 317.318 103.762 317.318ZM108.158 320C107.986 320 107.854 319.952 107.762 319.856C107.67 319.756 107.614 319.63 107.594 319.478H107.564C107.504 319.674 107.394 319.822 107.234 319.922C107.074 320.022 106.88 320.072 106.652 320.072C106.328 320.072 106.078 319.988 105.902 319.82C105.73 319.652 105.644 319.426 105.644 319.142C105.644 318.83 105.756 318.596 105.98 318.44C106.208 318.284 106.54 318.206 106.976 318.206H107.54V317.942C107.54 317.75 107.488 317.602 107.384 317.498C107.28 317.394 107.118 317.342 106.898 317.342C106.714 317.342 106.564 317.382 106.448 317.462C106.332 317.542 106.234 317.644 106.154 317.768L105.764 317.414C105.868 317.238 106.014 317.094 106.202 316.982C106.39 316.866 106.636 316.808 106.94 316.808C107.344 316.808 107.654 316.902 107.87 317.09C108.086 317.278 108.194 317.548 108.194 317.9V319.466H108.524V320H108.158ZM106.838 319.574C107.042 319.574 107.21 319.53 107.342 319.442C107.474 319.35 107.54 319.228 107.54 319.076V318.626H106.988C106.536 318.626 106.31 318.766 106.31 319.046V319.154C106.31 319.294 106.356 319.4 106.448 319.472C106.544 319.54 106.674 319.574 106.838 319.574ZM109.165 320V316.88H109.819V317.396H109.849C109.881 317.316 109.919 317.24 109.963 317.168C110.011 317.096 110.067 317.034 110.131 316.982C110.199 316.926 110.277 316.884 110.365 316.856C110.457 316.824 110.563 316.808 110.683 316.808C110.895 316.808 111.083 316.86 111.247 316.964C111.411 317.068 111.531 317.228 111.607 317.444H111.625C111.681 317.268 111.789 317.118 111.949 316.994C112.109 316.87 112.315 316.808 112.567 316.808C112.879 316.808 113.121 316.914 113.293 317.126C113.465 317.334 113.551 317.632 113.551 318.02V320H112.897V318.098C112.897 317.858 112.851 317.678 112.759 317.558C112.667 317.434 112.521 317.372 112.321 317.372C112.237 317.372 112.157 317.384 112.081 317.408C112.005 317.428 111.937 317.46 111.877 317.504C111.821 317.548 111.775 317.604 111.739 317.672C111.703 317.74 111.685 317.818 111.685 317.906V320H111.031V318.098C111.031 317.614 110.841 317.372 110.461 317.372C110.381 317.372 110.301 317.384 110.221 317.408C110.145 317.428 110.077 317.46 110.017 317.504C109.957 317.548 109.909 317.604 109.873 317.672C109.837 317.74 109.819 317.818 109.819 317.906V320H109.165Z" fill="#707A84"/>
<path d="M101.07 246.412V250H100.392V246.412H99.144V245.812H102.318V246.412H101.07ZM103.762 250.072C103.538 250.072 103.338 250.034 103.162 249.958C102.986 249.882 102.836 249.774 102.712 249.634C102.588 249.49 102.492 249.318 102.424 249.118C102.36 248.914 102.328 248.688 102.328 248.44C102.328 248.192 102.36 247.968 102.424 247.768C102.492 247.564 102.588 247.392 102.712 247.252C102.836 247.108 102.986 246.998 103.162 246.922C103.338 246.846 103.538 246.808 103.762 246.808C103.99 246.808 104.19 246.848 104.362 246.928C104.538 247.008 104.684 247.12 104.8 247.264C104.916 247.404 105.002 247.568 105.058 247.756C105.118 247.944 105.148 248.146 105.148 248.362V248.608H103.006V248.71C103.006 248.95 103.076 249.148 103.216 249.304C103.36 249.456 103.564 249.532 103.828 249.532C104.02 249.532 104.182 249.49 104.314 249.406C104.446 249.322 104.558 249.208 104.65 249.064L105.034 249.442C104.918 249.634 104.75 249.788 104.53 249.904C104.31 250.016 104.054 250.072 103.762 250.072ZM103.762 247.318C103.65 247.318 103.546 247.338 103.45 247.378C103.358 247.418 103.278 247.474 103.21 247.546C103.146 247.618 103.096 247.704 103.06 247.804C103.024 247.904 103.006 248.014 103.006 248.134V248.176H104.458V248.116C104.458 247.876 104.396 247.684 104.272 247.54C104.148 247.392 103.978 247.318 103.762 247.318ZM108.158 250C107.986 250 107.854 249.952 107.762 249.856C107.67 249.756 107.614 249.63 107.594 249.478H107.564C107.504 249.674 107.394 249.822 107.234 249.922C107.074 250.022 106.88 250.072 106.652 250.072C106.328 250.072 106.078 249.988 105.902 249.82C105.73 249.652 105.644 249.426 105.644 249.142C105.644 248.83 105.756 248.596 105.98 248.44C106.208 248.284 106.54 248.206 106.976 248.206H107.54V247.942C107.54 247.75 107.488 247.602 107.384 247.498C107.28 247.394 107.118 247.342 106.898 247.342C106.714 247.342 106.564 247.382 106.448 247.462C106.332 247.542 106.234 247.644 106.154 247.768L105.764 247.414C105.868 247.238 106.014 247.094 106.202 246.982C106.39 246.866 106.636 246.808 106.94 246.808C107.344 246.808 107.654 246.902 107.87 247.09C108.086 247.278 108.194 247.548 108.194 247.9V249.466H108.524V250H108.158ZM106.838 249.574C107.042 249.574 107.21 249.53 107.342 249.442C107.474 249.35 107.54 249.228 107.54 249.076V248.626H106.988C106.536 248.626 106.31 248.766 106.31 249.046V249.154C106.31 249.294 106.356 249.4 106.448 249.472C106.544 249.54 106.674 249.574 106.838 249.574ZM109.165 250V246.88H109.819V247.396H109.849C109.881 247.316 109.919 247.24 109.963 247.168C110.011 247.096 110.067 247.034 110.131 246.982C110.199 246.926 110.277 246.884 110.365 246.856C110.457 246.824 110.563 246.808 110.683 246.808C110.895 246.808 111.083 246.86 111.247 246.964C111.411 247.068 111.531 247.228 111.607 247.444H111.625C111.681 247.268 111.789 247.118 111.949 246.994C112.109 246.87 112.315 246.808 112.567 246.808C112.879 246.808 113.121 246.914 113.293 247.126C113.465 247.334 113.551 247.632 113.551 248.02V250H112.897V248.098C112.897 247.858 112.851 247.678 112.759 247.558C112.667 247.434 112.521 247.372 112.321 247.372C112.237 247.372 112.157 247.384 112.081 247.408C112.005 247.428 111.937 247.46 111.877 247.504C111.821 247.548 111.775 247.604 111.739 247.672C111.703 247.74 111.685 247.818 111.685 247.906V250H111.031V248.098C111.031 247.614 110.841 247.372 110.461 247.372C110.381 247.372 110.301 247.384 110.221 247.408C110.145 247.428 110.077 247.46 110.017 247.504C109.957 247.548 109.909 247.604 109.873 247.672C109.837 247.74 109.819 247.818 109.819 247.906V250H109.165Z" fill="#707A84"/>
<path d="M91.76 230.216V235H90.856V230.216H89.192V229.416H93.424V230.216H91.76ZM95.3498 235.096C95.0618 235.096 94.7978 235.045 94.5578 234.944C94.3231 234.843 94.1231 234.699 93.9578 234.512C93.7924 234.32 93.6644 234.091 93.5738 233.824C93.4831 233.552 93.4378 233.251 93.4378 232.92C93.4378 232.589 93.4831 232.291 93.5738 232.024C93.6644 231.752 93.7924 231.523 93.9578 231.336C94.1231 231.144 94.3231 230.997 94.5578 230.896C94.7978 230.795 95.0618 230.744 95.3498 230.744C95.6378 230.744 95.8991 230.795 96.1338 230.896C96.3738 230.997 96.5764 231.144 96.7418 231.336C96.9071 231.523 97.0351 231.752 97.1258 232.024C97.2164 232.291 97.2618 232.589 97.2618 232.92C97.2618 233.251 97.2164 233.552 97.1258 233.824C97.0351 234.091 96.9071 234.32 96.7418 234.512C96.5764 234.699 96.3738 234.843 96.1338 234.944C95.8991 235.045 95.6378 235.096 95.3498 235.096ZM95.3498 234.376C95.6484 234.376 95.8884 234.285 96.0698 234.104C96.2511 233.917 96.3418 233.64 96.3418 233.272V232.568C96.3418 232.2 96.2511 231.925 96.0698 231.744C95.8884 231.557 95.6484 231.464 95.3498 231.464C95.0511 231.464 94.8111 231.557 94.6298 231.744C94.4484 231.925 94.3578 232.2 94.3578 232.568V233.272C94.3578 233.64 94.4484 233.917 94.6298 234.104C94.8111 234.285 95.0511 234.376 95.3498 234.376ZM98.2334 230.84H99.1054V231.528H99.1454C99.236 231.277 99.3827 231.085 99.5854 230.952C99.7934 230.813 100.036 230.744 100.313 230.744C100.841 230.744 101.249 230.936 101.537 231.32C101.825 231.699 101.969 232.232 101.969 232.92C101.969 233.608 101.825 234.144 101.537 234.528C101.249 234.907 100.841 235.096 100.313 235.096C100.036 235.096 99.7934 235.027 99.5854 234.888C99.3827 234.749 99.236 234.557 99.1454 234.312H99.1054V236.6H98.2334V230.84ZM100.049 234.344C100.353 234.344 100.596 234.248 100.777 234.056C100.959 233.859 101.049 233.6 101.049 233.28V232.56C101.049 232.24 100.959 231.984 100.777 231.792C100.596 231.595 100.353 231.496 100.049 231.496C99.7827 231.496 99.5587 231.563 99.3774 231.696C99.196 231.824 99.1054 231.995 99.1054 232.208V233.632C99.1054 233.845 99.196 234.019 99.3774 234.152C99.5587 234.28 99.7827 234.344 100.049 234.344ZM103.408 230.096C103.226 230.096 103.093 230.053 103.008 229.968C102.928 229.883 102.888 229.773 102.888 229.64V229.504C102.888 229.371 102.928 229.261 103.008 229.176C103.093 229.091 103.226 229.048 103.408 229.048C103.589 229.048 103.72 229.091 103.8 229.176C103.88 229.261 103.92 229.371 103.92 229.504V229.64C103.92 229.773 103.88 229.883 103.8 229.968C103.72 230.053 103.589 230.096 103.408 230.096ZM102.968 230.84H103.84V235H102.968V230.84ZM106.693 235.096C106.394 235.096 106.128 235.045 105.893 234.944C105.658 234.843 105.461 234.699 105.301 234.512C105.141 234.32 105.018 234.091 104.933 233.824C104.848 233.552 104.805 233.251 104.805 232.92C104.805 232.589 104.848 232.291 104.933 232.024C105.018 231.752 105.141 231.523 105.301 231.336C105.461 231.144 105.658 230.997 105.893 230.896C106.128 230.795 106.394 230.744 106.693 230.744C107.109 230.744 107.45 230.837 107.717 231.024C107.984 231.211 108.178 231.459 108.301 231.768L107.581 232.104C107.522 231.912 107.418 231.76 107.269 231.648C107.125 231.531 106.933 231.472 106.693 231.472C106.373 231.472 106.13 231.573 105.965 231.776C105.805 231.973 105.725 232.232 105.725 232.552V233.296C105.725 233.616 105.805 233.877 105.965 234.08C106.13 234.277 106.373 234.376 106.693 234.376C106.949 234.376 107.152 234.315 107.301 234.192C107.456 234.064 107.578 233.896 107.669 233.688L108.333 234.04C108.194 234.381 107.986 234.643 107.709 234.824C107.432 235.005 107.093 235.096 106.693 235.096ZM110.483 235.096C110.088 235.096 109.758 235.027 109.491 234.888C109.224 234.749 108.992 234.557 108.795 234.312L109.355 233.8C109.51 233.987 109.68 234.133 109.867 234.24C110.059 234.341 110.28 234.392 110.531 234.392C110.787 234.392 110.976 234.344 111.099 234.248C111.227 234.147 111.291 234.008 111.291 233.832C111.291 233.699 111.246 233.587 111.155 233.496C111.07 233.4 110.918 233.339 110.699 233.312L110.315 233.264C109.888 233.211 109.552 233.088 109.307 232.896C109.067 232.699 108.947 232.408 108.947 232.024C108.947 231.821 108.984 231.643 109.059 231.488C109.134 231.328 109.238 231.195 109.371 231.088C109.51 230.976 109.672 230.891 109.859 230.832C110.051 230.773 110.262 230.744 110.491 230.744C110.864 230.744 111.168 230.803 111.403 230.92C111.643 231.037 111.856 231.2 112.043 231.408L111.507 231.92C111.4 231.792 111.259 231.683 111.083 231.592C110.912 231.496 110.715 231.448 110.491 231.448C110.251 231.448 110.072 231.496 109.955 231.592C109.843 231.688 109.787 231.813 109.787 231.968C109.787 232.128 109.838 232.248 109.939 232.328C110.04 232.408 110.203 232.467 110.427 232.504L110.811 232.552C111.27 232.621 111.603 232.757 111.811 232.96C112.024 233.157 112.131 233.424 112.131 233.76C112.131 233.963 112.091 234.147 112.011 234.312C111.936 234.472 111.827 234.611 111.683 234.728C111.539 234.845 111.366 234.936 111.163 235C110.96 235.064 110.734 235.096 110.483 235.096Z" fill="white"/>
<path d="M91.76 296.216V301H90.856V296.216H89.192V295.416H93.424V296.216H91.76ZM95.3498 301.096C95.0511 301.096 94.7844 301.045 94.5498 300.944C94.3151 300.843 94.1151 300.699 93.9498 300.512C93.7844 300.32 93.6564 300.091 93.5658 299.824C93.4804 299.552 93.4378 299.251 93.4378 298.92C93.4378 298.589 93.4804 298.291 93.5658 298.024C93.6564 297.752 93.7844 297.523 93.9498 297.336C94.1151 297.144 94.3151 296.997 94.5498 296.896C94.7844 296.795 95.0511 296.744 95.3498 296.744C95.6538 296.744 95.9204 296.797 96.1498 296.904C96.3844 297.011 96.5791 297.16 96.7338 297.352C96.8884 297.539 97.0031 297.757 97.0778 298.008C97.1578 298.259 97.1978 298.528 97.1978 298.816V299.144H94.3418V299.28C94.3418 299.6 94.4351 299.864 94.6218 300.072C94.8138 300.275 95.0858 300.376 95.4378 300.376C95.6938 300.376 95.9098 300.32 96.0858 300.208C96.2618 300.096 96.4111 299.944 96.5338 299.752L97.0458 300.256C96.8911 300.512 96.6671 300.717 96.3738 300.872C96.0804 301.021 95.7391 301.096 95.3498 301.096ZM95.3498 297.424C95.2004 297.424 95.0618 297.451 94.9338 297.504C94.8111 297.557 94.7044 297.632 94.6138 297.728C94.5284 297.824 94.4618 297.939 94.4138 298.072C94.3658 298.205 94.3418 298.352 94.3418 298.512V298.568H96.2778V298.488C96.2778 298.168 96.1951 297.912 96.0298 297.72C95.8644 297.523 95.6378 297.424 95.3498 297.424ZM101.211 301C100.982 301 100.806 300.936 100.683 300.808C100.56 300.675 100.486 300.507 100.459 300.304H100.419C100.339 300.565 100.192 300.763 99.9791 300.896C99.7657 301.029 99.5071 301.096 99.2031 301.096C98.7711 301.096 98.4377 300.984 98.2031 300.76C97.9737 300.536 97.8591 300.235 97.8591 299.856C97.8591 299.44 98.0084 299.128 98.3071 298.92C98.6111 298.712 99.0537 298.608 99.6351 298.608H100.387V298.256C100.387 298 100.318 297.803 100.179 297.664C100.04 297.525 99.8244 297.456 99.5311 297.456C99.2857 297.456 99.0857 297.509 98.9311 297.616C98.7764 297.723 98.6457 297.859 98.5391 298.024L98.0191 297.552C98.1577 297.317 98.3524 297.125 98.6031 296.976C98.8537 296.821 99.1817 296.744 99.5871 296.744C100.126 296.744 100.539 296.869 100.827 297.12C101.115 297.371 101.259 297.731 101.259 298.2V300.288H101.699V301H101.211ZM99.4511 300.432C99.7231 300.432 99.9471 300.373 100.123 300.256C100.299 300.133 100.387 299.971 100.387 299.768V299.168H99.6511C99.0484 299.168 98.7471 299.355 98.7471 299.728V299.872C98.7471 300.059 98.8084 300.2 98.9311 300.296C99.0591 300.387 99.2324 300.432 99.4511 300.432ZM102.554 301V296.84H103.426V297.528H103.466C103.508 297.421 103.559 297.32 103.618 297.224C103.682 297.128 103.756 297.045 103.842 296.976C103.932 296.901 104.036 296.845 104.154 296.808C104.276 296.765 104.418 296.744 104.578 296.744C104.86 296.744 105.111 296.813 105.33 296.952C105.548 297.091 105.708 297.304 105.81 297.592H105.834C105.908 297.357 106.052 297.157 106.266 296.992C106.479 296.827 106.754 296.744 107.09 296.744C107.506 296.744 107.828 296.885 108.058 297.168C108.287 297.445 108.402 297.843 108.402 298.36V301H107.53V298.464C107.53 298.144 107.468 297.904 107.346 297.744C107.223 297.579 107.028 297.496 106.762 297.496C106.65 297.496 106.543 297.512 106.442 297.544C106.34 297.571 106.25 297.613 106.17 297.672C106.095 297.731 106.034 297.805 105.986 297.896C105.938 297.987 105.914 298.091 105.914 298.208V301H105.042V298.464C105.042 297.819 104.788 297.496 104.282 297.496C104.175 297.496 104.068 297.512 103.962 297.544C103.86 297.571 103.77 297.613 103.69 297.672C103.61 297.731 103.546 297.805 103.498 297.896C103.45 297.987 103.426 298.091 103.426 298.208V301H102.554Z" fill="white"/>
<circle cx="94" cy="95" r="4" fill="#ED5752"/>
<circle cx="106" cy="95" r="4" fill="#F2B644"/>
<circle cx="118" cy="95" r="4" fill="#69C397"/>
</svg>
