<svg width="11" height="9" viewBox="0 0 11 9" fill="none" xmlns="http://www.w3.org/2000/svg">
<path fill-rule="evenodd" clip-rule="evenodd" d="M0.549993 5.06242L9.12219 5.06242L6.21107 8.03969C5.99657 8.25906 5.99657 8.61512 6.21107 8.83505C6.42612 9.05498 6.77427 9.05498 6.98876 8.83505L10.8387 4.89761C11.0538 4.67824 11.0538 4.32162 10.8387 4.10225L6.98876 0.164809C6.88151 0.0551234 6.74072 -3.55439e-07 6.59992 -3.55439e-07C6.45912 -3.55439e-07 6.31832 0.0551234 6.21107 0.164809C5.99657 0.384181 5.99657 0.740239 6.21107 0.960173L9.12219 3.93744L0.549993 3.93744C0.246396 3.93744 -4.27416e-07 4.18943 -4.27416e-07 4.49993C-4.27416e-07 4.81042 0.246396 5.06242 0.549993 5.06242Z" fill="black"/>
</svg>
